s<svg width="24" height="24" fill="none" xmlns="http://www.w3.org/2000/svg"><path fill-rule="evenodd" clip-rule="evenodd" d="M2 4.25h4c1.386 0 2.58.39 3.436 1.153.866.77 1.314 1.859 1.314 3.097s-.448 2.326-1.314 3.098C8.58 12.36 7.386 12.75 6 12.75H2a.75.75 0 0 1-.75-.75V5A.75.75 0 0 1 2 4.25Zm.75 1.5v5.5H6c1.114 0 1.92-.31 2.439-.773.51-.454.811-1.115.811-1.977 0-.862-.302-1.524-.811-1.978C7.92 6.061 7.114 5.75 6 5.75H2.75Z"/><path fill-rule="evenodd" clip-rule="evenodd" d="M1.25 12a.75.75 0 0 1 .75-.75h4.516c1.507 0 2.822.411 3.771 1.25.96.85 1.463 2.067 1.463 3.5 0 1.433-.503 2.65-1.463 3.5-.949.839-2.264 1.25-3.771 1.25H2a.75.75 0 0 1-.75-.75v-8Zm1.5.75v6.5h3.766c1.245 0 2.172-.339 2.777-.874.594-.526.957-1.31.957-2.376 0-1.067-.363-1.85-.957-2.376-.605-.535-1.532-.874-2.777-.874H2.75ZM14.49 11.828c.832-.983 2.043-1.578 3.51-1.578 1.743 0 2.97.742 3.735 1.814.741 1.037 1.015 2.329 1.015 3.436a.75.75 0 0 1-.75.75h-7.197c.115.782.408 1.453.832 1.953.543.642 1.332 1.047 2.365 1.047 1.09 0 1.822-.324 2.271-.624.229-.152.389-.301.488-.407a1.762 1.762 0 0 0 .121-.141m0 0Zm0 0a.75.75 0 0 1 1.244.838L21.5 18.5l.624.416v.002l-.002.001-.003.004-.006.009a1.555 1.555 0 0 1-.071.096 3.23 3.23 0 0 1-.192.221 4.331 4.331 0 0 1-.747.625c-.675.45-1.693.876-3.103.876-1.467 0-2.678-.595-3.51-1.578-.822-.97-1.24-2.277-1.24-3.672s.418-2.701 1.24-3.672m.313 2.922h6.394c-.094-.655-.314-1.299-.682-1.814-.485-.678-1.258-1.186-2.515-1.186-1.033 0-1.822.405-2.365 1.047-.424.5-.717 1.17-.832 1.953ZM14.25 7.5a.75.75 0 0 1 .75-.75h6a.75.75 0 0 1 0 1.5h-6a.75.75 0 0 1-.75-.75Z" /></svg>