<?xml version="1.0" encoding="utf-8"?>
<!-- Generator: Adobe Adobe Illustrator 24.2.0, SVG Export Plug-In . SVG Version: 6.00 Build 0)  -->
<svg version="1.1" xmlns="http://www.w3.org/2000/svg" xmlns:xlink="http://www.w3.org/1999/xlink" x="0px" y="0px" width="24px"
	 height="24px" viewBox="0 0 24 24" style="enable-background:new 0 0 24 24;" xml:space="preserve">
<style type="text/css">
	.st0{fill:none;stroke-miterlimit:10;}
</style>
<g id="Layer_1">
	<circle class="st0" cx="13.4" cy="12" r="4.05"/>
</g>
<g id="Layer_2">
	<path class="st0" d="M13.07,18.56c-4.83-0.58-7.5-4.72-6.9-7.42c1.19-5.36,7.32-7.79,11.43-4.36c0.36,0.3,1.06,0.81,1.26,0.56
		l2.13-2.08c0.29-0.29,0.28-0.76-0.03-1.03c-8.74-7.6-18.94-0.75-18.94,7.35c0,11.42,13.55,14.63,19.15,8.24
		c0.01-0.01,0.01-0.02,0.01-0.03c0.12-0.3,0.05-0.64-0.17-0.88l-1.59-1.8c-0.32-0.37-1.32,0.38-1.76,0.59
		C15.55,18.68,13.32,18.59,13.07,18.56z"/>
</g>
</svg>
