<svg viewBox ="0 0 40 40" fill="none" xmlns="http://www.w3.org/2000/svg"><path fill-rule="evenodd" clip-rule="evenodd" d="M6.333 6.505c-1.375.688-1.75 1.406-1.75 1.828 0 .422.375 1.141 1.75 1.829 1.3.65 3.184 1.088 5.333 1.088 2.15 0 4.034-.438 5.334-1.088 1.375-.688 1.75-1.407 1.75-1.829 0-.422-.375-1.14-1.75-1.828-1.3-.65-3.184-1.088-5.334-1.088-2.149 0-4.033.438-5.333 1.088ZM5.215 4.27c1.715-.858 3.998-1.352 6.451-1.352 2.454 0 4.736.494 6.452 1.352 1.64.82 3.132 2.185 3.132 4.064 0 1.88-1.491 3.244-3.132 4.065-1.716.857-3.998 1.352-6.452 1.352-2.453 0-4.736-.495-6.451-1.352-1.641-.82-3.132-2.185-3.132-4.065 0-1.879 1.49-3.244 3.132-4.064Z" fill="#fff"/><path fill-rule="evenodd" clip-rule="evenodd" d="M3.333 7.083c.69 0 1.25.56 1.25 1.25h-2.5c0-.69.56-1.25 1.25-1.25Zm17.917 1.25v5.834c0 1.879-1.491 3.243-3.132 4.064-1.716.858-3.998 1.352-6.452 1.352-2.453 0-4.736-.494-6.451-1.352-1.641-.82-3.132-2.185-3.132-4.064V8.333h2.5v5.834c0 .422.375 1.14 1.75 1.828 1.3.65 3.184 1.088 5.333 1.088 2.15 0 4.034-.438 5.334-1.088 1.375-.688 1.75-1.406 1.75-1.828V8.333h2.5Zm0 0a1.25 1.25 0 0 0-2.5 0h2.5Z" fill="#fff"/><path fill-rule="evenodd" clip-rule="evenodd" d="M3.333 12.917c.69 0 1.25.56 1.25 1.25h-2.5c0-.69.56-1.25 1.25-1.25Zm17.917 1.25V20c0 1.88-1.491 3.244-3.132 4.064-1.716.858-3.998 1.353-6.452 1.353-2.453 0-4.736-.495-6.451-1.353-1.641-.82-3.132-2.185-3.132-4.064v-5.833h2.5V20c0 .422.375 1.14 1.75 1.828 1.3.65 3.184 1.089 5.333 1.089 2.15 0 4.034-.439 5.334-1.089 1.375-.687 1.75-1.406 1.75-1.828v-5.833h2.5Zm0 0a1.25 1.25 0 0 0-2.5 0h2.5Z" fill="#fff"/><path fill-rule="evenodd" clip-rule="evenodd" d="M3.333 18.75c.69 0 1.25.56 1.25 1.25h-2.5c0-.69.56-1.25 1.25-1.25ZM21.25 20v5.833c0 1.88-1.491 3.244-3.132 4.065-1.716.858-3.998 1.352-6.452 1.352-2.453 0-4.736-.494-6.451-1.352-1.641-.82-3.132-2.186-3.132-4.065V20h2.5v5.833c0 .422.375 1.141 1.75 1.829 1.3.65 3.184 1.088 5.333 1.088 2.15 0 4.034-.438 5.334-1.088 1.375-.688 1.75-1.407 1.75-1.829V20h2.5Zm0 0a1.25 1.25 0 0 0-2.5 0h2.5Z" fill="#fff"/><path fill-rule="evenodd" clip-rule="evenodd" d="M3.333 24.583c.69 0 1.25.56 1.25 1.25h-2.5c0-.69.56-1.25 1.25-1.25Zm17.917 1.25v5.834c0 1.879-1.491 3.243-3.132 4.064-1.716.858-3.998 1.352-6.452 1.352-2.453 0-4.736-.494-6.451-1.352-1.641-.82-3.132-2.185-3.132-4.064v-5.834h2.5v5.834c0 .422.375 1.14 1.75 1.828 1.3.65 3.184 1.088 5.333 1.088 2.15 0 4.034-.438 5.334-1.088 1.375-.688 1.75-1.406 1.75-1.828v-5.834h2.5Zm0 0a1.25 1.25 0 0 0-2.5 0h2.5ZM23 18.172c-1.376.687-1.75 1.406-1.75 1.828 0 .422.374 1.14 1.75 1.828 1.3.65 3.184 1.089 5.333 1.089 2.15 0 4.033-.439 5.334-1.089 1.375-.687 1.75-1.406 1.75-1.828 0-.422-.375-1.14-1.75-1.828-1.3-.65-3.185-1.089-5.334-1.089-2.15 0-4.033.439-5.333 1.089Zm-1.119-2.236c1.716-.858 3.999-1.353 6.452-1.353s4.736.495 6.452 1.353c1.64.82 3.131 2.185 3.131 4.064 0 1.88-1.49 3.244-3.131 4.064-1.716.858-3.999 1.353-6.452 1.353s-4.736-.495-6.452-1.353c-1.64-.82-3.131-2.185-3.131-4.064 0-1.88 1.49-3.244 3.131-4.064Z" fill="#fff"/><path fill-rule="evenodd" clip-rule="evenodd" d="M20 18.75c.69 0 1.25.56 1.25 1.25h-2.5c0-.69.56-1.25 1.25-1.25ZM37.916 20v5.833c0 1.88-1.49 3.244-3.131 4.065-1.716.858-3.999 1.352-6.452 1.352s-4.736-.494-6.452-1.352c-1.64-.82-3.131-2.186-3.131-4.065V20h2.5v5.833c0 .422.374 1.141 1.75 1.829 1.3.65 3.184 1.088 5.333 1.088 2.15 0 4.033-.438 5.334-1.088 1.375-.688 1.75-1.407 1.75-1.829V20h2.5Zm0 0a1.25 1.25 0 1 0-2.5 0h2.5Z" fill="#fff"/><path fill-rule="evenodd" clip-rule="evenodd" d="M20 24.583c.69 0 1.25.56 1.25 1.25h-2.5c0-.69.56-1.25 1.25-1.25Zm17.916 1.25v5.834c0 1.879-1.49 3.243-3.131 4.064-1.716.858-3.999 1.352-6.452 1.352s-4.736-.494-6.452-1.352c-1.64-.82-3.131-2.185-3.131-4.064v-5.834h2.5v5.834c0 .422.374 1.14 1.75 1.828 1.3.65 3.184 1.088 5.333 1.088 2.15 0 4.033-.438 5.334-1.088 1.375-.688 1.75-1.406 1.75-1.828v-5.834h2.5Zm0 0a1.25 1.25 0 0 0-2.5 0h2.5Z" fill="#fff"/></svg>