<svg viewBox ="0 0 64 64" fill="none" xmlns="http://www.w3.org/2000/svg"><path d="M3.333 32C3.333 16.168 16.168 3.334 32 3.334S60.666 16.168 60.666 32 47.832 60.667 32 60.667 3.333 47.832 3.333 32ZM32 7.334C18.377 7.334 7.333 18.377 7.333 32c0 13.623 11.044 24.667 24.667 24.667 13.623 0 24.666-11.044 24.666-24.667C56.666 18.377 45.623 7.334 32 7.334Z"/><path d="M26 20a6 6 0 1 1 12 0 6 6 0 0 1-12 0Zm6-2a2 2 0 1 0 0 4 2 2 0 0 0 0-4ZM26 44a6 6 0 1 1 12 0 6 6 0 0 1-12 0Zm6-2a2 2 0 1 0 0 4 2 2 0 0 0 0-4ZM14 32a6 6 0 1 1 12 0 6 6 0 0 1-12 0Zm6-2a2 2 0 1 0 0 4 2 2 0 0 0 0-4ZM38 32a6 6 0 1 1 12 0 6 6 0 0 1-12 0Zm6-2a2 2 0 1 0 0 4 2 2 0 0 0 0-4ZM30 58.667a2 2 0 0 1 2-2h26.666a2 2 0 0 1 0 4H32a2 2 0 0 1-2-2Z"/></svg>