<svg width="32" height="32" fill="none" xmlns="http://www.w3.org/2000/svg"><path d="M7.812 6.293c-1.075 0-1.746.963-1.439 1.873C7.475 11.43 9.527 16.34 12.587 19.4c3.06 3.06 7.97 5.112 11.233 6.213.91.307 1.873-.363 1.873-1.439v-3.313a.326.326 0 0 0-.167-.286l-2.887-1.604a.326.326 0 0 0-.305-.007l-3.078 1.539a.98.98 0 0 1-.623.086l.185-.962-.185.962h-.002l-.004-.001-.01-.002-.03-.006a7.07 7.07 0 0 1-.428-.11 9.688 9.688 0 0 1-1.101-.395 9.823 9.823 0 0 1-3.086-2.06 9.865 9.865 0 0 1-2.064-3.089 9.75 9.75 0 0 1-.398-1.104 7.062 7.062 0 0 1-.11-.428l-.006-.03-.002-.01-.001-.003v-.002l.961-.188-.961.188a.984.984 0 0 1 .085-.626l1.54-3.08a.327.327 0 0 0-.007-.304L11.41 6.461a.327.327 0 0 0-.286-.168H7.812Zm5.58 6.98v.002c.061.212.163.519.317.88a7.906 7.906 0 0 0 1.649 2.473m0 0a7.864 7.864 0 0 0 2.468 1.645c.36.154.666.254.877.315l2.755-1.377a2.286 2.286 0 0 1 2.133.047l2.887 1.605a2.286 2.286 0 0 1 1.175 1.998v3.313c0 2.3-2.172 4.068-4.46 3.296-3.304-1.115-8.59-3.283-11.992-6.685-3.402-3.402-5.57-8.688-6.684-11.992-.772-2.288.995-4.46 3.295-4.46h3.313c.83 0 1.596.451 1.999 1.177l1.598 2.878c.366.66.383 1.458.046 2.132l-1.377 2.753"/></svg>