<svg width="16" height="16" viewBox="0 0 16 16" fill="none" xmlns="http://www.w3.org/2000/svg">
<g clip-path="url(#clip0_507_351)">
<path fill-rule="evenodd" clip-rule="evenodd" d="M5.83381 1.33337C5.83381 1.05723 6.05767 0.833374 6.33381 0.833374H9.66714C9.94328 0.833374 10.1671 1.05723 10.1671 1.33337V4.24725L12.6906 2.7903C12.8055 2.724 12.942 2.70603 13.0701 2.74035C13.1981 2.77467 13.3074 2.85847 13.3737 2.97331L15.0403 5.86007C15.1784 6.09922 15.0965 6.40501 14.8573 6.54309L12.3338 8.00004L14.8573 9.45696C14.9721 9.52326 15.0559 9.63247 15.0903 9.76056C15.1246 9.88865 15.1066 10.0251 15.0403 10.14L13.3737 13.0267C13.3074 13.1416 13.1981 13.2254 13.0701 13.2597C12.942 13.294 12.8055 13.2761 12.6906 13.2098L10.1671 11.7528V14.6667C10.1671 14.9429 9.94328 15.1667 9.66714 15.1667H6.33381C6.05767 15.1667 5.83381 14.9429 5.83381 14.6667V11.7528L3.31031 13.2098C3.19546 13.2761 3.05899 13.294 2.9309 13.2597C2.80281 13.2254 2.6936 13.1416 2.62729 13.0267L0.960625 10.14C0.894321 10.0251 0.876354 9.88865 0.910676 9.76056C0.944998 9.63247 1.0288 9.52326 1.14364 9.45696L3.66714 8.00004L1.14364 6.54309C0.904492 6.40501 0.822555 6.09922 0.960625 5.86007L2.62729 2.97331C2.6936 2.85847 2.80281 2.77467 2.9309 2.74035C3.05899 2.70603 3.19546 2.724 3.31031 2.7903L5.83381 4.24725V1.33337ZM6.83381 1.83337V5.11327C6.83381 5.29191 6.73851 5.45697 6.58381 5.54629C6.42911 5.6356 6.23851 5.6356 6.08381 5.54629L3.24332 3.90633L2.07665 5.92706L4.91714 7.56703C5.07184 7.65635 5.16714 7.82141 5.16714 8.00004C5.16714 8.17868 5.07184 8.34374 4.91714 8.43305L2.07665 10.073L3.24332 12.0937L6.08381 10.4538C6.23851 10.3644 6.42911 10.3644 6.58381 10.4538C6.73851 10.5431 6.83381 10.7081 6.83381 10.8868V14.1667H9.16714V10.8868C9.16714 10.7081 9.26244 10.5431 9.41714 10.4538C9.57184 10.3644 9.76244 10.3644 9.91714 10.4538L12.7576 12.0937L13.9243 10.073L11.0838 8.43305C10.9291 8.34374 10.8338 8.17868 10.8338 8.00004C10.8338 7.82141 10.9291 7.65635 11.0838 7.56703L13.9243 5.92706L12.7576 3.90633L9.91714 5.54629C9.76244 5.6356 9.57184 5.6356 9.41714 5.54629C9.26244 5.45697 9.16714 5.29191 9.16714 5.11327V1.83337H6.83381Z" fill="white"/>
</g>
<defs>
<clipPath id="clip0_507_351">
<rect width="16" height="16" fill="white"/>
</clipPath>
</defs>
</svg>
