<svg viewBox ="0 0 64 64" fill="none" xmlns="http://www.w3.org/2000/svg"><path d="M51.334 37.856a2 2 0 0 0-4 0h4ZM31.992 47.21l-2-.002v.002h2Zm.016-29.685h2-2ZM12.667 37.856a2 2 0 1 0 4 0h-4Zm43.252 4.891a2 2 0 0 0 2.829-2.828l-2.829 2.828Zm-6.585-9.414 1.414-1.414a2 2 0 0 0-2.829 0l1.415 1.414Zm-9.415 6.586a2 2 0 0 0 2.829 2.828l-2.829-2.828Zm9.415-14.586-1.074 1.688a2 2 0 0 0 2.147 0l-1.073-1.688Zm-5.657-16.43 1.38 1.447-1.38-1.447Zm11.313 0-1.38 1.447 1.38-1.447Zm-40.323 48.43-1.074 1.688a2 2 0 0 0 2.148 0l-1.074-1.688Zm5.657-16.43-1.381 1.447 1.38-1.447Zm27.01-3.047v9.353h4v-9.353h-4Zm0 9.353c0 3.776-3.013 6.79-6.671 6.79v4c5.92 0 10.67-4.857 10.67-10.79h-4Zm-6.671 6.79c-3.658 0-6.67-3.014-6.67-6.79h-4c0 5.933 4.75 10.79 10.67 10.79v-4Zm-6.67-6.79.015-29.684-4-.002-.016 29.685 4 .002Zm.015-29.685C34.008 11.34 29.403 6 23.338 6v4c3.511 0 6.67 3.188 6.67 7.524h4ZM23.338 6c-6.066 0-10.671 5.34-10.671 11.524h4c0-4.336 3.16-7.524 6.67-7.524V6ZM12.667 17.524v20.332h4V17.524h-4Zm46.08 22.395-8-8-2.828 2.828 8 8 2.829-2.828Zm-10.828-8-8 8 2.829 2.828 8-8-2.829-2.828Zm7.415-17.616c0 2.13-1.491 4.39-3.42 6.333a24.643 24.643 0 0 1-3.593 2.97 5.003 5.003 0 0 1-.052.034l-.01.007h-.001.001l1.075 1.686a333.606 333.606 0 0 0 1.074 1.687h.002l.002-.003.008-.005.025-.015.081-.054a26.347 26.347 0 0 0 1.267-.906 28.65 28.65 0 0 0 2.96-2.583c2.071-2.087 4.58-5.342 4.58-9.151h-4Zm-6 11.03 1.074-1.687.002.001h-.001a24.643 24.643 0 0 1-3.656-3.01c-1.929-1.944-3.42-4.204-3.42-6.334h-4c0 3.809 2.51 7.064 4.581 9.151a28.65 28.65 0 0 0 4.227 3.489l.082.053.024.016.008.005.003.002c.001.001.002.002 1.076-1.686Zm-6-11.03c0-1.464.608-2.888 1.724-3.953l-2.762-2.894c-1.885 1.8-2.962 4.26-2.962 6.847h4Zm1.724-3.953c1.119-1.068 2.655-1.684 4.276-1.684v-4c-2.623 0-5.156.994-7.038 2.79l2.762 2.894Zm4.276-1.684c1.62 0 3.157.616 4.275 1.684l2.762-2.894c-1.881-1.796-4.414-2.79-7.037-2.79v4Zm4.276 1.684c1.115 1.065 1.724 2.489 1.724 3.953h4c0-2.587-1.078-5.047-2.963-6.847L53.61 10.35ZM20.667 46.303c0 2.13-1.49 4.39-3.42 6.333a24.653 24.653 0 0 1-3.593 2.97 4.732 4.732 0 0 1-.062.04v.001s.001-.001 1.075 1.686c1.074 1.688 1.074 1.687 1.075 1.687l.004-.003.008-.005a8.411 8.411 0 0 0 .106-.07 26.251 26.251 0 0 0 1.268-.906 28.64 28.64 0 0 0 2.959-2.582c2.07-2.087 4.58-5.342 4.58-9.151h-4Zm-6 11.03a447.418 447.418 0 0 1 1.075-1.687v.001c.001 0 0 0 0 0a24.653 24.653 0 0 1-3.656-3.01c-1.928-1.944-3.419-4.204-3.419-6.334h-4c0 3.809 2.51 7.064 4.58 9.151a28.645 28.645 0 0 0 4.227 3.489 8.062 8.062 0 0 0 .106.07l.008.004.003.002h.001c0 .001.001.002 1.075-1.686Zm-6-11.03c0-1.464.608-2.888 1.724-3.953L7.63 39.456c-1.885 1.8-2.962 4.26-2.962 6.847h4Zm1.724-3.953c1.119-1.068 2.655-1.684 4.276-1.684v-4c-2.623 0-5.156.994-7.038 2.79l2.762 2.894Zm4.276-1.684c1.62 0 3.157.616 4.276 1.684l2.762-2.894c-1.882-1.796-4.415-2.79-7.038-2.79v4Zm4.276 1.684c1.116 1.065 1.724 2.489 1.724 3.953h4c0-2.587-1.077-5.047-2.962-6.847l-2.762 2.894Z"/></svg>