<svg viewBox ="0 0 64 64" fill="none" xmlns="http://www.w3.org/2000/svg"><path d="M18.666 34a4.667 4.667 0 1 0 0 9.333 4.667 4.667 0 0 0 0-9.333ZM10 38.667a8.667 8.667 0 1 1 17.333 0 8.667 8.667 0 0 1-17.333 0ZM45.333 34a4.667 4.667 0 1 0 0 9.334 4.667 4.667 0 0 0 0-9.334Zm-8.667 4.667a8.667 8.667 0 1 1 17.334 0 8.667 8.667 0 0 1-17.334 0ZM32 7.333a4.667 4.667 0 1 0 0 9.334 4.667 4.667 0 0 0 0-9.334ZM23.333 12a8.667 8.667 0 1 1 17.333 0 8.667 8.667 0 0 1-17.333 0Z" /><path d="M3.333 58.667c0-8.468 6.865-15.334 15.333-15.334C27.135 43.334 34 50.2 34 58.668a2 2 0 0 1-4 0c0-6.26-5.075-11.334-11.334-11.334-6.259 0-11.333 5.075-11.333 11.334a2 2 0 1 1-4 0Z" /><path d="M30 58.667c0-8.468 6.865-15.334 15.333-15.334S60.666 50.2 60.666 58.668a2 2 0 1 1-4 0c0-6.26-5.074-11.334-11.333-11.334-6.26 0-11.333 5.075-11.333 11.334a2 2 0 0 1-4 0ZM16.666 32c0-8.468 6.865-15.333 15.334-15.333 8.468 0 15.333 6.865 15.333 15.333a2 2 0 0 1-4 0c0-6.259-5.074-11.333-11.333-11.333-6.26 0-11.334 5.074-11.334 11.333a2 2 0 0 1-4 0Z" /></svg>