<svgviewBox ="0 0 64 64" fill="none" xmlns="http://www.w3.org/2000/svg"><path fill-rule="evenodd" clip-rule="evenodd" d="M10.133 10.408c-2.2 1.1-2.8 2.25-2.8 2.925 0 .675.6 1.825 2.8 2.925 2.08 1.04 5.095 1.742 8.533 1.742 3.44 0 6.453-.701 8.534-1.742 2.2-1.1 2.8-2.25 2.8-2.925 0-.675-.6-1.825-2.8-2.925-2.08-1.04-5.095-1.742-8.534-1.742-3.438 0-6.453.702-8.533 1.742ZM8.343 6.83c2.746-1.372 6.398-2.163 10.323-2.163 3.925 0 7.578.79 10.323 2.163 2.625 1.313 5.01 3.497 5.01 6.503 0 3.007-2.385 5.19-5.01 6.503C26.244 21.21 22.59 22 18.666 22c-3.925 0-7.577-.791-10.322-2.164-2.626-1.313-5.011-3.496-5.011-6.503 0-3.006 2.385-5.19 5.01-6.503Z"/><path fill-rule="evenodd" clip-rule="evenodd" d="M5.333 11.333a2 2 0 0 1 2 2h-4a2 2 0 0 1 2-2Zm28.667 2v9.333c0 3.007-2.386 5.19-5.011 6.503-2.745 1.373-6.398 2.164-10.323 2.164-3.925 0-7.577-.791-10.322-2.164-2.626-1.312-5.011-3.496-5.011-6.503v-9.333h4v9.333c0 .676.6 1.826 2.8 2.926 2.08 1.04 5.095 1.741 8.533 1.741 3.439 0 6.453-.701 8.534-1.741 2.2-1.1 2.8-2.25 2.8-2.925v-9.334h4Zm0 0a2 2 0 0 0-4 0h4Z"/><path fill-rule="evenodd" clip-rule="evenodd" d="M5.333 20.666a2 2 0 0 1 2 2h-4a2 2 0 0 1 2-2Zm28.667 2V32c0 3.006-2.386 5.19-5.011 6.503-2.745 1.372-6.398 2.163-10.323 2.163-3.925 0-7.577-.79-10.322-2.163C5.718 37.19 3.333 35.006 3.333 32v-9.334h4V32c0 .675.6 1.825 2.8 2.925 2.08 1.04 5.095 1.742 8.533 1.742 3.439 0 6.453-.702 8.534-1.742 2.2-1.1 2.8-2.25 2.8-2.925v-9.334h4Zm0 0a2 2 0 0 0-4 0h4Z"/><path fill-rule="evenodd" clip-rule="evenodd" d="M5.333 30a2 2 0 0 1 2 2h-4a2 2 0 0 1 2-2ZM34 32v9.333c0 3.007-2.386 5.19-5.011 6.503C26.244 49.21 22.59 50 18.666 50c-3.925 0-7.577-.791-10.322-2.164-2.626-1.313-5.011-3.496-5.011-6.503V32h4v9.333c0 .675.6 1.825 2.8 2.925 2.08 1.04 5.095 1.742 8.533 1.742 3.439 0 6.453-.701 8.534-1.742 2.2-1.1 2.8-2.25 2.8-2.925V32h4Zm0 0a2 2 0 0 0-4 0h4Z" /><path fill-rule="evenodd" clip-rule="evenodd" d="M5.333 39.333a2 2 0 0 1 2 2h-4a2 2 0 0 1 2-2Zm28.667 2v9.334c0 3.006-2.386 5.19-5.011 6.502-2.745 1.373-6.398 2.164-10.323 2.164-3.925 0-7.577-.791-10.322-2.164-2.626-1.312-5.011-3.496-5.011-6.502v-9.334h4v9.334c0 .675.6 1.825 2.8 2.925 2.08 1.04 5.095 1.741 8.533 1.741 3.439 0 6.453-.701 8.534-1.741 2.2-1.1 2.8-2.25 2.8-2.925v-9.334h4Zm0 0a2 2 0 0 0-4 0h4ZM36.8 29.075c-2.2 1.1-2.8 2.25-2.8 2.925 0 .675.6 1.825 2.8 2.925 2.08 1.04 5.094 1.742 8.533 1.742 3.439 0 6.453-.702 8.534-1.742 2.2-1.1 2.8-2.25 2.8-2.925 0-.675-.6-1.825-2.8-2.925-2.081-1.04-5.095-1.742-8.534-1.742-3.439 0-6.453.701-8.534 1.742Zm-1.79-3.578c2.746-1.373 6.398-2.164 10.323-2.164 3.925 0 7.577.791 10.323 2.164 2.625 1.313 5.01 3.496 5.01 6.503 0 3.006-2.385 5.19-5.01 6.503-2.746 1.372-6.398 2.163-10.323 2.163-3.925 0-7.577-.79-10.322-2.163C32.385 37.19 30 35.006 30 32c0-3.007 2.385-5.19 5.01-6.503Z"/><path fill-rule="evenodd" clip-rule="evenodd" d="M32 30a2 2 0 0 1 2 2h-4a2 2 0 0 1 2-2Zm28.666 2v9.333c0 3.007-2.385 5.19-5.01 6.503C52.91 49.21 49.258 50 45.333 50c-3.925 0-7.577-.791-10.322-2.164C32.385 46.523 30 44.34 30 41.333V32h4v9.333c0 .675.6 1.825 2.8 2.925C38.88 45.298 41.893 46 45.332 46c3.439 0 6.453-.701 8.534-1.742 2.2-1.1 2.8-2.25 2.8-2.925V32h4Zm0 0a2 2 0 0 0-4 0h4Z"/><path fill-rule="evenodd" clip-rule="evenodd" d="M32 39.333a2 2 0 0 1 2 2h-4a2 2 0 0 1 2-2Zm28.666 2v9.334c0 3.006-2.385 5.19-5.01 6.502-2.746 1.373-6.398 2.164-10.323 2.164-3.925 0-7.577-.791-10.322-2.164C32.385 55.857 30 53.673 30 50.667v-9.334h4v9.334c0 .675.6 1.825 2.8 2.925 2.08 1.04 5.094 1.741 8.533 1.741 3.439 0 6.453-.701 8.534-1.741 2.2-1.1 2.8-2.25 2.8-2.925v-9.334h4Zm0 0a2 2 0 1 0-4 0h4Z"/></svg>