<svg viewBox='0 0 128 76' fill="none" xmlns="http://www.w3.org/2000/svg"><g clip-path="url(#a)" fill="#fff"><path d="M59.209 20h-6.135a.488.488 0 0 0-.427.254L45.05 37.136a.48.48 0 0 1-.427.254.488.488 0 0 1-.427-.254l-7.512-16.882a.48.48 0 0 0-.426-.254h-4.645l11.286 25.284a.425.425 0 0 0 .362.27h2.69a.486.486 0 0 0 .438-.28l5.358-10.358a.48.48 0 0 1 .544-.242.483.483 0 0 1 .366.465v12.653a.475.475 0 0 0 .298.441.486.486 0 0 0 .185.037h6.07c.128 0 .251-.05.342-.14a.476.476 0 0 0 .141-.338V20.478a.473.473 0 0 0-.299-.442.488.488 0 0 0-.185-.036ZM103.001 48.27c.703 0 1.273-.565 1.273-1.26 0-.696-.57-1.26-1.273-1.26s-1.273.564-1.273 1.26c0 .695.57 1.26 1.273 1.26ZM106.727 48.27c.703 0 1.273-.565 1.273-1.26 0-.696-.57-1.26-1.273-1.26s-1.273.564-1.273 1.26c0 .695.57 1.26 1.273 1.26ZM99.276 48.27c.703 0 1.273-.565 1.273-1.26 0-.696-.57-1.26-1.273-1.26s-1.273.564-1.273 1.26c0 .695.57 1.26 1.273 1.26ZM40.42 47.548l-11.396-26.99a.497.497 0 0 0-.167-.21.047.047 0 0 0-.042-.006.047.047 0 0 0-.03.03l-2.893 8.65a.6.6 0 0 0 .011.41l2.47 6.254a11.557 11.557 0 0 0 1.798 2.901c-.359-.403-1.272-1.262-2.643-1.37h-2.015a5.474 5.474 0 0 0-.809.058 5.646 5.646 0 0 0-2.834 1.263 5.557 5.557 0 0 0-1.723 2.562l-.09.29a1.356 1.356 0 0 0 .217 1.21 1.381 1.381 0 0 0 1.11.55h9.265a.951.951 0 0 1 .883.6l1.625 4.175a.505.505 0 0 0 .476.323h6.32a.513.513 0 0 0 .423-.226.501.501 0 0 0 .044-.474ZM23.549 42.1h-.034a.95.95 0 0 1-.6-.244.932.932 0 0 1-.3-.569 1.301 1.301 0 0 1-.012-.187c0-.694.528-1.256 1.18-1.256.189 0 .374.047.539.138.122.066.22.169.28.293.075.161.118.335.125.512v.056c.003.691-.526 1.257-1.178 1.257Zm5.178-.814a.932.932 0 0 1-.3.57.95.95 0 0 1-.6.243h-.033c-.652 0-1.181-.562-1.181-1.256v-.056c.007-.177.05-.351.126-.512a.658.658 0 0 1 .28-.293c.164-.09.35-.138.538-.138.652 0 1.181.563 1.181 1.256 0 .061-.003.122-.01.183v.003ZM84.865 47.778c.006.037.026.07.055.094a.162.162 0 0 0 .103.037h1.526l.232-.125c2.164-1.076 3.723-2.597 4.62-4.368.404-.804.613-1.69.612-2.588l.013-20.35a.473.473 0 0 0-.297-.442.487.487 0 0 0-.185-.036H85.36a.488.488 0 0 0-.427.254l-7.55 16.882a.481.481 0 0 1-.428.254.488.488 0 0 1-.427-.254l-6.96-16.882A.481.481 0 0 0 69.14 20h-6.28a.488.488 0 0 0-.445.295.471.471 0 0 0-.037.183v27.316a.471.471 0 0 0 .141.339.482.482 0 0 0 .341.14h6.116c.129 0 .251-.05.342-.14a.476.476 0 0 0 .141-.339V35.057a.475.475 0 0 1 .367-.464.487.487 0 0 1 .543.242l4.819 10.43a.38.38 0 0 0 .044.085.48.48 0 0 0 .396.205h2.656a.487.487 0 0 0 .415-.232.417.417 0 0 0 .023-.047l5.232-10.358a.48.48 0 0 1 .544-.242.483.483 0 0 1 .366.465v12.637ZM88.912 53.54a.245.245 0 0 0-.222-.048 4.92 4.92 0 0 1-.774.143c-.752.076-1.483-.02-2.057-.27a.366.366 0 0 1-.219-.29.372.372 0 0 1 .143-.336c.612-.483 1.025-1.082 1.107-1.602a.067.067 0 0 0-.029-.067.07.07 0 0 0-.071-.01c-.43.2-.893.317-1.367.346h-.018a.39.39 0 0 1-.375-.236.4.4 0 0 1 .073-.422 2.55 2.55 0 0 0 .537-.916c.018-.06.04-.126.063-.195l.032-.094c-.346.172-.703.33-1.061.482l-.153.064c-.226.094-.456.183-.686.266-.623.3-1.177.723-1.627 1.244a.086.086 0 0 0-.004.105.088.088 0 0 0 .102.032 6.035 6.035 0 0 1 1.563-.341.262.262 0 0 1 .258.154.255.255 0 0 1 .021.103v.045c-.617 1.205-1.761 2.156-3.14 2.608-.472.154-.962.25-1.458.284l-.116.007a.107.107 0 0 0-.098.08.104.104 0 0 0 .05.116h.003a5.393 5.393 0 0 0 1.767.642c.331.057.667.086 1.003.088.69.007 2.127.021 3.313-.942l.165-.134a.167.167 0 0 1 .266.088.162.162 0 0 1-.01.107l-.09.192a4.145 4.145 0 0 1-.622.937.134.134 0 0 0 .042.214.136.136 0 0 0 .083.01 10.651 10.651 0 0 0 2.379-.619c.19-.074.365-.179.518-.311l.1-.085c.402-.343.655-.796.693-1.244a.232.232 0 0 0-.084-.195Z"/><path d="M93.003 37.568s.097 3.038 0 4.045a8.613 8.613 0 0 1-.319 1.637 4.282 4.282 0 0 1-.306.686c-.89 1.787-2.383 3.273-4.59 4.489-.204.111-1.104.467-1.108.47a3.731 3.731 0 0 1-.14.496l-.06.181a2.69 2.69 0 0 1-.385.77.134.134 0 0 0 .139.21c.279-.055.55-.142.808-.26a.508.508 0 0 1 .67.268.492.492 0 0 1 .031.261c-.085.538-.426 1.103-.951 1.602a.186.186 0 0 0-.051.18.185.185 0 0 0 .133.133c.466.116.95.148 1.427.094.238-.024.474-.067.705-.13a.681.681 0 0 1 .8.384.654.654 0 0 1 .05.31c-.024.263-.099.519-.22.754a.054.054 0 0 0 .043.078.055.055 0 0 0 .034-.007c.184-.11.37-.219.55-.324.543-.316 1.053-.616 1.524-.968 2.894-2.165 4.485-5.075 4.485-8.195 0-2.628-1.156-5.141-3.269-7.164Z"/></g><defs><clipPath id="a"><path fill="#fff" transform="translate(20 20)" d="M0 0h88v36H0z"/></clipPath></defs></svg>