<svg viewBox ="0 0 64 64" fill="none" xmlns="http://www.w3.org/2000/svg"><path d="m44.974 36.827-.212 1.989.212-1.99Zm13.68 14.48 1.997-.095v-.005l-1.998.1Zm-.747 5.587-1.9-.624-.002.005 1.902.619ZM5.219 45.907l1.96.392-1.96-.392Zm8.114-40.575v-2h-1.64l-.32 1.608 1.96.393Zm16 0 1.737-.992-.576-1.008h-1.16v2Zm5.334 9.334 1.163 1.627 1.47-1.051-.897-1.568-1.736.992ZM23.24 22.84l-1.58 1.227 1.18 1.519 1.564-1.12-1.164-1.626Zm1.944-.522a2 2 0 1 0-3.862 1.044l3.862-1.044Zm2.218 23.537a2 2 0 0 0 3.862-1.043l-3.862 1.043Zm3.02 2.678a13.363 13.363 0 0 1 14.34-9.717l.423-3.978c-8.796-.934-16.435 4.72-18.62 12.63l3.856 1.065Zm14.34-9.717c6.431.682 11.57 6.131 11.894 12.591l3.995-.2c-.423-8.42-7.07-15.478-15.466-16.369l-.422 3.978Zm11.894 12.586a13.493 13.493 0 0 1-.65 4.868l3.801 1.247c.65-1.978.95-4.102.844-6.305l-3.995.19Zm-.651 4.873c-.06.182-.285.392-.618.392v4c1.933 0 3.788-1.203 4.422-3.155l-3.804-1.237Zm-.618.392H15.678v4h39.709v-4Zm-39.709 0c-5.469 0-9.57-5.004-8.498-10.367l-3.923-.784c-1.567 7.838 4.428 15.15 12.421 15.15v-4ZM7.18 46.3l8.115-40.574-3.923-.785-8.115 40.575 3.923.785Zm6.154-38.966h16v-4h-16v4Zm14.263-1.008 5.333 9.333 3.473-1.984L31.07 4.34l-3.473 1.985Zm5.906 6.714-11.426 8.174 2.327 3.253 11.426-8.173-2.327-3.254Zm-8.683 8.574-3.24-4.174-3.16 2.453 3.24 4.174 3.16-2.453Zm-3.498 1.748 6.08 22.493 3.862-1.043-6.08-22.494-3.862 1.044Z"/></svg>