<svg viewBox ="0 0 64 64" fill="none" xmlns="http://www.w3.org/2000/svg"><path fill-rule="evenodd" clip-rule="evenodd" d="M33.11 8.477a2 2 0 0 0-2.22 0l-1.906 1.27A24.667 24.667 0 0 0 18 30.272V42h28V30.27c0-8.247-4.122-15.949-10.984-20.523l-1.907-1.271Zm2.218-3.329 1.907 1.271A28.667 28.667 0 0 1 50 30.272V44a2 2 0 0 1-2 2H16a2 2 0 0 1-2-2V30.27c0-9.584 4.79-18.535 12.765-23.852l1.907-1.27a6 6 0 0 1 6.656 0Z"/><path fill-rule="evenodd" clip-rule="evenodd" d="M32 20.667a6 6 0 1 0 0 12 6 6 0 0 0 0-12Zm-10 6c0-5.523 4.477-10 10-10s10 4.477 10 10-4.477 10-10 10-10-4.477-10-10Z"/><path fill-rule="evenodd" clip-rule="evenodd" d="M17.389 27.894a2 2 0 0 1 .05 2.828L10 38.431V42h44v-3.57l-7.44-7.708a2 2 0 1 1 2.88-2.777l8 8.29a2 2 0 0 1 .56 1.388V44a2 2 0 0 1-2 2H8a2 2 0 0 1-2-2v-6.377a2 2 0 0 1 .56-1.389l8-8.29a2 2 0 0 1 2.829-.05ZM32 48.667a2 2 0 0 1 2 2v8a2 2 0 0 1-4 0v-8a2 2 0 0 1 2-2ZM21.333 51.333a2 2 0 0 1 2 2V56a2 2 0 1 1-4 0v-2.667a2 2 0 0 1 2-2ZM42.667 51.333a2 2 0 0 1 2 2V56a2 2 0 0 1-4 0v-2.667a2 2 0 0 1 2-2Z"/></svg>