<svg width="16" height="16" fill="none" xmlns="http://www.w3.org/2000/svg"><g clip-path="url(#a)"><path fill-rule="evenodd" clip-rule="evenodd" d="M5.834 1.333a.5.5 0 0 1 .5-.5h3.333a.5.5 0 0 1 .5.5v2.914l2.524-1.457a.5.5 0 0 1 .683.183L15.04 5.86a.5.5 0 0 1-.183.683L12.334 8l2.523 1.457a.5.5 0 0 1 .183.683l-1.666 2.887a.5.5 0 0 1-.683.183l-2.524-1.457v2.914a.5.5 0 0 1-.5.5H6.334a.5.5 0 0 1-.5-.5v-2.914L3.31 13.21a.5.5 0 0 1-.683-.183L.961 10.14a.5.5 0 0 1 .183-.683L3.667 8 1.144 6.543A.5.5 0 0 1 .96 5.86l1.666-2.887a.5.5 0 0 1 .683-.183l2.524 1.457V1.334Zm1 .5v3.28a.5.5 0 0 1-.75.433l-2.84-1.64-1.167 2.021 2.84 1.64a.5.5 0 0 1 0 .866l-2.84 1.64 1.166 2.02 2.84-1.64a.5.5 0 0 1 .75.434v3.28h2.334v-3.28a.5.5 0 0 1 .75-.433l2.84 1.64 1.167-2.02-2.84-1.64a.5.5 0 0 1 0-.867l2.84-1.64-1.166-2.02-2.84 1.64a.5.5 0 0 1-.75-.434v-3.28H6.833Z" /></g><defs><clipPath id="a"><path  d="M0 0h16v16H0z"/></clipPath></defs></svg>