<svg width="24" height="24" fill="none" xmlns="http://www.w3.org/2000/svg"><path d="M10.68 9.57h.75a.75.75 0 0 0-.714-.75l-.036.75Zm-6.14 3.15.667.341-.667-.342Zm11.365-3.783.402-.633a.75.75 0 0 0-1.151.633h.75Zm3.11 1.407.14-.737-.14.737Zm1.61.21.06.749a.75.75 0 0 0 .69-.748h-.75Zm0-3.237h.75a.75.75 0 0 0-.66-.745l-.09.745ZM18.6 6.779l-.316.68.316-.68Zm-2.548-3.113.742-.108a.75.75 0 0 0-1.492.108h.75Zm0-1.25h.75a.75.75 0 0 0-.75-.75v.75Zm-3.559 0v-.75a.75.75 0 0 0-.75.75h.75Zm0 13.03-.75.01.75-.01Zm-4.33-2.153-.452-.599.452.599Zm2.517-.574v.75a.75.75 0 0 0 .75-.75h-.75Zm.036-3.898c-1.567-.076-2.953.163-4.122.762-1.176.604-2.083 1.547-2.722 2.794l1.335.684c.51-.995 1.201-1.697 2.072-2.143.878-.45 1.987-.665 3.364-.599l.073-1.498Zm-6.844 3.556c-.965 1.884-1.049 4.346-.086 6.359.987 2.063 3.048 3.597 6.204 3.597v-1.5c-2.594 0-4.12-1.216-4.85-2.745-.757-1.579-.69-3.549.067-5.027l-1.335-.684Zm6.118 9.956c1.563 0 2.796-.38 3.755-.996.956-.615 1.597-1.437 2.024-2.258.843-1.621.886-3.3.886-3.633h-1.5c0 .248-.04 1.638-.717 2.94-.333.64-.812 1.244-1.504 1.69-.689.442-1.633.757-2.944.757v1.5Zm6.665-6.887V8.937h-1.5V15.446h1.5Zm-1.15-5.875c1.261.8 2.392 1.325 3.372 1.51l.278-1.474c-.708-.134-1.65-.545-2.848-1.303l-.803 1.267Zm3.372 1.51c.429.08.789.14 1.077.178.269.036.53.06.73.044l-.118-1.496h-.031a4.96 4.96 0 0 1-.386-.036 18.931 18.931 0 0 1-.994-.164l-.278 1.474Zm2.498-.526V7.317h-1.5v3.238h1.5Zm-.66-3.983c-.721-.087-1.316-.249-1.799-.473l-.632 1.36c.657.305 1.412.501 2.252.603l.18-1.49ZM18.916 6.1a5.134 5.134 0 0 1-1.381-.952c-.455-.452-.733-.95-.733-1.481h-1.5c0 1.084.57 1.943 1.175 2.545a6.63 6.63 0 0 0 1.807 1.248l.632-1.36ZM15.31 3.774a.75.75 0 0 0 .043.164c.019.043.086.16.14.228.133.117.547.25.806.208.165-.081.363-.27.411-.348.06-.107.076-.206.077-.208.01-.044.012-.08.012-.084a.558.558 0 0 0 .004-.078V2.415l-1.5.003v1.228-.024l.003-.024c0-.003.003-.04.012-.084 0-.002.018-.1.077-.208.048-.077.246-.267.41-.348.26-.042.674.09.806.208.055.068.122.185.14.228l.03.09a.752.752 0 0 1 .014.074l-1.485.216Zm.742-2.107h-3.559v1.5h3.56v-1.5Zm-4.309.749c-.01 7.903-.01 12.254 0 13.04l1.5-.02c-.01-.771-.01-5.106 0-13.018l-1.5-.002Zm0 13.04c.006.405-.155.934-.498 1.352a1.834 1.834 0 0 1-1.477.687v1.5a3.333 3.333 0 0 0 2.637-1.237c.565-.69.849-1.561.838-2.323l-1.5.02Zm-1.975 2.04c-.671 0-1.155-.29-1.486-.682-.348-.412-.505-.914-.505-1.252h-1.5c0 .714.296 1.554.86 2.22a3.375 3.375 0 0 0 2.631 1.213v-1.5Zm-1.99-1.934c0-.481.161-1.16.837-1.671l-.904-1.197a3.55 3.55 0 0 0-1.434 2.868h1.5Zm.837-1.67c.34-.258.883-.423 2.065-.423v-1.5c-1.262 0-2.224.162-2.97.725l.905 1.197Zm2.815-1.173V9.57h-1.5V12.719h1.5Z"/></svg>