<svg width="24" height="24" fill="none" xmlns="http://www.w3.org/2000/svg"><path d="m5.532 5.207-.038-.749.038.75Zm12.936 0 .038-.749-.038.75Zm2.84 2.747.748-.063-.747.063Zm-.004 8.072.748.063-.748-.063Zm-2.793 2.741-.05-.748.05.748Zm-13.021 0-.049.749.049-.748Zm-2.794-2.74.748-.063-.748.063Zm-.004-8.075-.748-.063.748.063Zm8.473 6.608-.413-.625.413.625Zm3.299-2.18.413.626-.413-.626Zm.121-.594.626-.413-.626.413Zm-.118-.119-.419.623.419-.623Zm-3.3-2.218.42-.622-.42.622Zm-.594.116-.622-.418.622.418ZM5.569 5.956c2.767-.138 4.909-.206 6.43-.206v-1.5c-1.558 0-3.729.07-6.505.208l.075 1.498ZM12 5.75c1.521 0 3.663.068 6.432.206l.075-1.498c-2.777-.138-4.948-.208-6.507-.208v1.5Zm6.432.206a2.25 2.25 0 0 1 2.13 2.06l1.495-.125a3.75 3.75 0 0 0-3.55-3.433l-.075 1.498Zm2.13 2.06c.126 1.502.188 2.817.188 3.946h1.5c0-1.181-.065-2.54-.193-4.07l-1.495.124Zm.188 3.946c0 1.143-.063 2.476-.192 4.001l1.495.126c.13-1.555.197-2.931.197-4.127h-1.5Zm-.192 4.001a2.25 2.25 0 0 1-2.095 2.056l.097 1.497a3.75 3.75 0 0 0 3.492-3.427l-1.494-.126Zm-2.095 2.056a99.665 99.665 0 0 1-6.463.231v1.5c1.99 0 4.177-.078 6.56-.234l-.098-1.497Zm-6.463.231c-1.95 0-4.104-.077-6.46-.23l-.098 1.496c2.382.156 4.569.234 6.558.234v-1.5Zm-6.46-.23a2.25 2.25 0 0 1-2.095-2.056l-1.495.127a3.75 3.75 0 0 0 3.492 3.425l.098-1.497Zm-2.095-2.056a48.15 48.15 0 0 1-.195-4.002h-1.5c0 1.186.067 2.563.2 4.129l1.495-.127Zm-.195-4.002c0-1.118.063-2.433.19-3.947l-1.495-.126a49.374 49.374 0 0 0-.195 4.073h1.5Zm.19-3.947a2.25 2.25 0 0 1 2.13-2.059l-.075-1.498a3.75 3.75 0 0 0-3.55 3.431l1.495.126Zm6.311 1.79v4.398h1.5V9.805h-1.5Zm0 4.398c0 .65.528 1.179 1.179 1.179v-1.5c.177 0 .321.143.321.321h-1.5Zm1.179 1.179c.23 0 .457-.068.65-.196l-.828-1.251a.322.322 0 0 1 .178-.053v1.5Zm.65-.196 3.298-2.18-.827-1.251-3.299 2.18.828 1.251Zm3.298-2.18c.543-.359.692-1.09.334-1.633l-1.252.827a.321.321 0 0 1 .091-.445l.827 1.251Zm.334-1.633a1.177 1.177 0 0 0-.326-.328l-.837 1.245a.321.321 0 0 1-.089-.09l1.252-.827Zm-.326-.328-3.299-2.218-.837 1.244 3.3 2.219.836-1.245Zm-3.299-2.218a1.179 1.179 0 0 0-1.635.32l1.244.837a.321.321 0 0 1-.446.087l.837-1.244Zm-1.636.32c-.13.194-.2.423-.2.658h1.5c0 .064-.019.126-.054.179L9.95 9.147Z"/></svg>